<svg width="122.88" height="88.86" xmlns="http://www.w3.org/2000/svg" data-name="Layer 1">
 <title>email</title>

 <g>
  <title>Layer 1</title>
  <path stroke="#ffffff" fill="#ffffff" id="svg_1" d="m7.05,0l108.78,0a7.07,7.07 0 0 1 7,7.05l0,74.76a7,7 0 0 1 -1.22,4a2.78,2.78 0 0 1 -0.66,1a2.62,2.62 0 0 1 -0.66,0.46a7,7 0 0 1 -4.51,1.65l-108.73,0a7.07,7.07 0 0 1 -7,-7l0,-74.87a7.07,7.07 0 0 1 7,-7.05zm-0.3,78.84l36.78,-38.22l-36.78,-31.08l0,69.3zm42.32,-33.45l-39.3,38.06l103,0l-37.55,-38.06l-11,9.21l0,0a2.7,2.7 0 0 1 -3.45,0l-11.7,-9.21zm31.6,-4.84l35.46,38.6l0,-69.95l-35.46,31.35zm-70.46,-35.14l52.18,42.29l49.88,-42.29l-102.06,0z"/>
 </g>
</svg>