<svg width="122.88" height="122.88" xmlns="http://www.w3.org/2000/svg" data-name="Layer 1">
 <title>instagram-logo-black-and-white</title>

 <g>
  <title>Layer 1</title>
  <path fill="#ffffff" id="svg_1" d="m61.45,0c-16.69,0 -18.79,0.07 -25.34,0.37a45.08,45.08 0 0 0 -14.91,2.86a29.86,29.86 0 0 0 -10.88,7.08a30.26,30.26 0 0 0 -7.1,10.88a44.92,44.92 0 0 0 -2.85,14.92c-0.29,6.55 -0.37,8.64 -0.37,25.33s0.07,18.77 0.37,25.33a45.08,45.08 0 0 0 2.86,14.91a30.12,30.12 0 0 0 7.08,10.88a30.13,30.13 0 0 0 10.88,7.1a45.17,45.17 0 0 0 14.92,2.85c6.55,0.3 8.64,0.37 25.33,0.37s18.77,-0.07 25.33,-0.37a45.17,45.17 0 0 0 14.92,-2.85a31.54,31.54 0 0 0 18,-18a45.6,45.6 0 0 0 2.86,-14.91c0.29,-6.55 0.37,-8.64 0.37,-25.33s-0.08,-18.78 -0.37,-25.33a45.66,45.66 0 0 0 -2.86,-14.92a30.1,30.1 0 0 0 -7.09,-10.88a29.77,29.77 0 0 0 -10.88,-7.08a45.14,45.14 0 0 0 -14.96,-2.84c-6.56,-0.3 -8.64,-0.37 -25.33,-0.37l0.02,0zm-5.52,11.07l5.52,0c16.4,0 18.34,0.06 24.82,0.36a34,34 0 0 1 11.41,2.11a19,19 0 0 1 7.06,4.6a19.16,19.16 0 0 1 4.6,7.06a34,34 0 0 1 2.11,11.41c0.3,6.47 0.36,8.42 0.36,24.82s-0.06,18.34 -0.36,24.82a33.89,33.89 0 0 1 -2.11,11.4a20.35,20.35 0 0 1 -11.66,11.65a33.64,33.64 0 0 1 -11.41,2.12c-6.47,0.3 -8.42,0.36 -24.82,0.36s-18.35,-0.06 -24.83,-0.36a34,34 0 0 1 -11.41,-2.12a19,19 0 0 1 -7.07,-4.59a19,19 0 0 1 -4.59,-7.06a34,34 0 0 1 -2.12,-11.41c-0.29,-6.48 -0.35,-8.42 -0.35,-24.83s0.06,-18.34 0.35,-24.82a33.7,33.7 0 0 1 2.12,-11.41a19,19 0 0 1 4.59,-7.06a19.12,19.12 0 0 1 7.07,-4.6a34.22,34.22 0 0 1 11.41,-2.12c5.67,-0.25 7.86,-0.33 19.31,-0.34l0,0.01zm38.31,10.2a7.38,7.38 0 1 0 7.38,7.37a7.37,7.37 0 0 0 -7.38,-7.37zm-32.79,8.62a31.55,31.55 0 1 0 31.55,31.55a31.56,31.56 0 0 0 -31.55,-31.55zm0,11.07a20.48,20.48 0 1 1 -20.45,20.48a20.48,20.48 0 0 1 20.45,-20.44l0,-0.04z"/>
 </g>
</svg>