<svg width="122.88000000000001" height="86.43" xmlns="http://www.w3.org/2000/svg" data-name="Layer 1">

 <title>black-and-white-youtube</title>
 <g>
  <title>Layer 1</title>
  <path fill="#ffffff" id="svg_1" fill-rule="evenodd" d="m121.635,18.625s-1.2,-8.47 -4.9,-12.19c-4.67,-4.89 -9.91,-4.92 -12.31,-5.21c-17.18,-1.25 -42.99,-1.25 -42.99,-1.25l0,0s-25.8,0 -43,1.25c-2.4,0.29 -7.63,0.31 -12.31,5.21c-3.72,3.72 -4.9,12.19 -4.9,12.19a187.15,187.15 0 0 0 -1.22,19.9l0,9.31a187.65,187.65 0 0 0 1.22,19.9s1.2,8.47 4.87,12.24c4.68,4.9 10.82,4.74 13.57,5.26c9.83,0.94 41.78,1.22 41.78,1.22s25.83,0 43,-1.27c2.41,-0.29 7.64,-0.32 12.32,-5.21c3.69,-3.72 4.89,-12.2 4.89,-12.2a187.15,187.15 0 0 0 1.22,-19.9l0,-9.36a189.26,189.26 0 0 0 -1.25,-19.9l0.01,0.01z" class="cls-1"/>
  <polygon id="svg_2" fill="#000000" fill-rule="evenodd" points="48.71 59.16 48.71 24.63 81.9 41.95 48.71 59.16 48.71 59.16" class="cls-2"/>
 </g>
</svg>